<?xml version="1.0" encoding="UTF-8"?>
<svg width="215px" height="49px" viewBox="0 0 215 49" version="1.1" xmlns="http://www.w3.org/2000/svg" xmlns:xlink="http://www.w3.org/1999/xlink">
    <!-- Generator: Sketch 50.2 (55047) - http://www.bohemiancoding.com/sketch -->
    <title>Group 5</title>
    <desc>Created with Sketch.</desc>
    <defs></defs>
    <g id="Page-1" stroke="none" stroke-width="1" fill="none" fill-rule="evenodd">
        <g id="logo2" transform="translate(-58.000000, -53.000000)">
            <g id="Group-5" transform="translate(58.000000, 47.000000)">
                <g id="Group-2">
                    <g id="Group-3"></g>
                </g>
                <g id="Group-2-Copy" transform="translate(0.000000, 6.000000)">
                    <path d="M88.672,24.56 L85.672,24.56 L85.672,35 L82.408,35 L82.408,24.56 L80.368,24.56 L80.368,22.04 L82.4080562,22.04 C82.4087942,21.7238373 82.4167754,21.3678405 82.432,20.972 C82.4480001,20.5559979 82.5139994,20.1360021 82.63,19.712 C82.7460006,19.2879979 82.9599984,18.9040017 83.272,18.56 C83.672002,18.1119978 84.1059977,17.8060008 84.574,17.642 C85.0420023,17.4779992 85.4959978,17.3900001 85.936,17.378 C86.3760022,17.3659999 86.7519984,17.36 87.064,17.36 L88.672,17.36 L88.672,20 L87.184,20 C86.6719974,20 86.2920012,20.1299987 86.044,20.39 C85.7959988,20.6500013 85.672,20.9599982 85.672,21.32 L85.672,22.04 L88.672,22.04 L89.86,22.04 L89.86,18.44 L93.124,18.44 L93.124,22.04 L96.868,22.04 L96.868,24.56 L93.124,24.56 L93.124,29.312 C93.124,29.8160025 93.1299999,30.269998 93.142,30.674 C93.1540001,31.078002 93.2359992,31.3999988 93.388,31.64 C93.6760014,32.0960023 94.1359968,32.3439998 94.768,32.384 C95.4000032,32.4240002 96.0999962,32.3920005 96.868,32.288 L96.868,35 C95.9719955,35.1680008 95.0940043,35.2420001 94.234,35.222 C93.3739957,35.2019999 92.6060034,35.0500014 91.93,34.766 C91.2539966,34.4819986 90.7400018,34.0240032 90.388,33.392 C90.0679984,32.799997 89.9000001,32.1980031 89.884,31.586 C89.8679999,30.9739969 89.86,30.2800039 89.86,29.504 L89.86,24.56 L88.672,24.56 Z M51.304,35 L46.24,17.72 L49.672,17.72 L52.912,29.6 L56.152,17.744 L59.584,17.72 L62.824,29.6 L66.064,17.72 L69.496,17.72 L64.432,35 L61.216,35 L57.868,23.336 L54.52,35 L51.304,35 Z M76.4904354,26.4205111 C76.4282838,25.8866955 76.2528062,25.4785278 75.964,25.196 C75.5959982,24.8359982 74.9800043,24.656 74.116,24.656 C73.6359976,24.656 73.1360026,24.7719988 72.616,25.004 C72.0959974,25.2360012 71.732001,25.647997 71.524,26.24 L68.572,25.304 C68.9000016,24.2319946 69.5159955,23.3600034 70.42,22.688 C71.3240045,22.0159966 72.5559922,21.68 74.116,21.68 C75.2600057,21.68 76.2759956,21.8559982 77.164,22.208 C78.0520044,22.5600018 78.7239977,23.1679957 79.18,24.032 C79.4360013,24.5120024 79.5879998,24.9919976 79.636,25.472 C79.6840002,25.9520024 79.708,26.487997 79.708,27.08 L79.708,35 L76.852,35 L76.852,33.4091461 C76.337075,34.0158354 75.7910783,34.472117 75.214,34.778 C74.4819963,35.1660019 73.5560056,35.36 72.436,35.36 C71.5079954,35.36 70.7220032,35.1820018 70.078,34.826 C69.4339968,34.4699982 68.9460017,33.994003 68.614,33.398 C68.2819983,32.801997 68.116,32.1440036 68.116,31.424 C68.116,30.823997 68.2079991,30.2760025 68.392,29.78 C68.5760009,29.2839975 68.8739979,28.8460019 69.286,28.466 C69.6980021,28.0859981 70.2519965,27.7680013 70.948,27.512 C71.4280024,27.3359991 71.9999967,27.1800007 72.664,27.044 C73.3280033,26.9079993 74.0799958,26.7780006 74.92,26.654 C75.4143844,26.5810194 75.937861,26.5031901 76.4904354,26.4205111 Z M76.4615886,29.0654249 C75.9236546,29.1563658 75.4617938,29.2365571 75.076,29.306 C74.475997,29.4140005 73.9920018,29.5119996 73.624,29.6 C73.2559982,29.6880004 72.9320014,29.7839995 72.652,29.888 C72.3319984,30.0160006 72.074001,30.1539993 71.878,30.302 C71.681999,30.4500007 71.5380005,30.6119991 71.446,30.788 C71.3539995,30.9640009 71.308,31.1599989 71.308,31.376 C71.308,31.6720015 71.3819993,31.9259989 71.53,32.138 C71.6780007,32.3500011 71.8879986,32.5119994 72.16,32.624 C72.4320014,32.7360006 72.7559981,32.792 73.132,32.792 C73.732003,32.792 74.2379979,32.6860011 74.65,32.474 C75.0620021,32.2619989 75.3899988,32.0200014 75.634,31.748 C75.8780012,31.4759986 76.0439996,31.2480009 76.132,31.064 C76.3000008,30.7119982 76.3979999,30.3020023 76.426,29.834 C76.4430602,29.5488505 76.4549231,29.2926597 76.4615886,29.0654249 Z" id="Waft" fill="#4A4A4A"></path>
                    <path d="M211.676,29.072 L205.804427,29.072 C205.907208,29.8488409 206.150398,30.4788372 206.534,30.962 C207.058003,31.6220033 207.827995,31.952 208.844,31.952 C209.484003,31.952 210.031998,31.8120014 210.488,31.532 C210.944002,31.2519986 211.291999,30.8480026 211.532,30.32 L214.796,31.256 C214.307998,32.4400059 213.538005,33.3599967 212.486,34.016 C211.433995,34.6720033 210.284006,35 209.036,35 C207.707993,35 206.538005,34.7140029 205.526,34.142 C204.513995,33.5699971 203.722003,32.782005 203.15,31.778 C202.577997,30.773995 202.292,29.6240065 202.292,28.328 C202.292,26.9119929 202.571997,25.6800052 203.132,24.632 C203.692003,23.5839948 204.463995,22.7700029 205.448,22.19 C206.432005,21.6099971 207.563994,21.32 208.844,21.32 C210.204007,21.32 211.359995,21.6399968 212.312,22.28 C213.264005,22.9200032 213.967998,23.8199942 214.424,24.98 C214.880002,26.1400058 215.040001,27.5039922 214.904,29.072 L211.676,29.072 Z M211.602379,26.648 C211.507885,25.9457284 211.322426,25.4037311 211.046,25.022 C210.625998,24.4419971 209.940005,24.152 208.988,24.152 C207.875994,24.152 207.058003,24.4899966 206.534,25.166 C206.23328,25.5539518 206.018851,26.0479499 205.890713,26.648 L211.602379,26.648 Z M178.304,29.072 L172.432427,29.072 C172.535208,29.8488409 172.778398,30.4788372 173.162,30.962 C173.686003,31.6220033 174.455995,31.952 175.472,31.952 C176.112003,31.952 176.659998,31.8120014 177.116,31.532 C177.572002,31.2519986 177.919999,30.8480026 178.16,30.32 L181.424,31.256 C180.935998,32.4400059 180.166005,33.3599967 179.114,34.016 C178.061995,34.6720033 176.912006,35 175.664,35 C174.335993,35 173.166005,34.7140029 172.154,34.142 C171.141995,33.5699971 170.350003,32.782005 169.778,31.778 C169.205997,30.773995 168.92,29.6240065 168.92,28.328 C168.92,26.9119929 169.199997,25.6800052 169.76,24.632 C170.320003,23.5839948 171.091995,22.7700029 172.076,22.19 C173.060005,21.6099971 174.191994,21.32 175.472,21.32 C176.832007,21.32 177.987995,21.6399968 178.94,22.28 C179.892005,22.9200032 180.595998,23.8199942 181.052,24.98 C181.508002,26.1400058 181.668001,27.5039922 181.532,29.072 L178.304,29.072 Z M178.230379,26.648 C178.135885,25.9457284 177.950426,25.4037311 177.674,25.022 C177.253998,24.4419971 176.568005,24.152 175.616,24.152 C174.503994,24.152 173.686003,24.4899966 173.162,25.166 C172.86128,25.5539518 172.646851,26.0479499 172.518713,26.648 L178.230379,26.648 Z M160.46,26.792 L160.46,34.64 L157.196,34.64 L157.196,26.984 C157.196,26.1279957 156.994002,25.4620024 156.59,24.986 C156.185998,24.5099976 155.628004,24.272 154.916,24.272 C154.235997,24.272 153.690002,24.5059977 153.278,24.974 C152.865998,25.4420023 152.66,26.0479963 152.66,26.792 L152.66,34.64 L149.372,34.64 L149.372,21.68 L152.252,21.68 L152.252,23.1003372 C152.628691,22.6370886 153.090689,22.2556452 153.638,21.956 C154.354004,21.563998 155.155996,21.368 156.044,21.368 C157.060005,21.368 157.893997,21.5839978 158.546,22.016 C159.085283,22.3733165 159.50826,22.8291413 159.814938,23.3834841 C160.223945,22.7724717 160.756961,22.2906479 161.414,21.938 C162.122004,21.5579981 162.907996,21.368 163.772,21.368 C165.252007,21.368 166.369996,21.8059956 167.126,22.682 C167.882004,23.5580044 168.26,24.7039929 168.26,26.12 L168.26,34.64 L164.996,34.64 L164.996,26.984 C164.996,26.1279957 164.794002,25.4620024 164.39,24.986 C163.985998,24.5099976 163.428004,24.272 162.716,24.272 C162.259998,24.272 161.864002,24.3779989 161.528,24.59 C161.191998,24.8020011 160.930001,25.0979981 160.742,25.478 C160.553999,25.8580019 160.46,26.2959975 160.46,26.792 Z M139.976,26.792 L139.976,34.64 L136.712,34.64 L136.712,26.984 C136.712,26.1279957 136.510002,25.4620024 136.106,24.986 C135.701998,24.5099976 135.144004,24.272 134.432,24.272 C133.751997,24.272 133.206002,24.5059977 132.794,24.974 C132.381998,25.4420023 132.176,26.0479963 132.176,26.792 L132.176,34.64 L128.888,34.64 L128.888,21.68 L131.768,21.68 L131.768,23.1003372 C132.144691,22.6370886 132.606689,22.2556452 133.154,21.956 C133.870004,21.563998 134.671996,21.368 135.56,21.368 C136.576005,21.368 137.409997,21.5839978 138.062,22.016 C138.601283,22.3733165 139.02426,22.8291413 139.330938,23.3834841 C139.739945,22.7724717 140.272961,22.2906479 140.93,21.938 C141.638004,21.5579981 142.423996,21.368 143.288,21.368 C144.768007,21.368 145.885996,21.8059956 146.642,22.682 C147.398004,23.5580044 147.776,24.7039929 147.776,26.12 L147.776,34.64 L144.512,34.64 L144.512,26.984 C144.512,26.1279957 144.310002,25.4620024 143.906,24.986 C143.501998,24.5099976 142.944004,24.272 142.232,24.272 C141.775998,24.272 141.380002,24.3779989 141.044,24.59 C140.707998,24.8020011 140.446001,25.0979981 140.258,25.478 C140.069999,25.8580019 139.976,26.2959975 139.976,26.792 Z M106.376,35 C104.647991,35 103.158006,34.6240038 101.906,33.872 C100.653994,33.1199962 99.6900034,32.0680068 99.014,30.716 C98.3379966,29.3639932 98,27.792009 98,26 C98,24.207991 98.3379966,22.6360068 99.014,21.284 C99.6900034,19.9319932 100.653994,18.8800038 101.906,18.128 C103.158006,17.3759962 104.647991,17 106.376,17 C108.36001,17 110.025993,17.4919951 111.374,18.476 C112.722007,19.4600049 113.671997,20.7919916 114.224,22.472 L110.936,23.384 C110.615998,22.3359948 110.076004,21.5220029 109.316,20.942 C108.555996,20.3619971 107.576006,20.072 106.376,20.072 C105.279995,20.072 104.366004,20.3159976 103.634,20.804 C102.901996,21.2920024 102.352002,21.9799956 101.984,22.868 C101.615998,23.7560044 101.432,24.799994 101.432,26 C101.432,27.200006 101.615998,28.2439956 101.984,29.132 C102.352002,30.0200044 102.901996,30.7079976 103.634,31.196 C104.366004,31.6840024 105.279995,31.928 106.376,31.928 C107.576006,31.928 108.555996,31.6360029 109.316,31.052 C110.076004,30.4679971 110.615998,29.6560052 110.936,28.616 L114.224,29.528 C113.671997,31.2080084 112.722007,32.5399951 111.374,33.524 C110.025993,34.5080049 108.36001,35 106.376,35 Z M121.196,35 C119.891993,35 118.748005,34.7080029 117.764,34.124 C116.779995,33.5399971 116.014003,32.7340051 115.466,31.706 C114.917997,30.6779949 114.644,29.4960067 114.644,28.16 C114.644,26.8079932 114.923997,25.6180051 115.484,24.59 C116.044003,23.5619949 116.815995,22.7600029 117.8,22.184 C118.784005,21.6079971 119.915994,21.32 121.196,21.32 C122.500007,21.32 123.645995,21.6119971 124.634,22.196 C125.622005,22.7800029 126.391997,23.5859949 126.944,24.614 C127.496003,25.6420051 127.772,26.8239933 127.772,28.16 C127.772,29.5040067 127.494003,30.6899949 126.938,31.718 C126.381997,32.7460051 125.610005,33.5499971 124.622,34.13 C123.633995,34.7100029 122.492006,35 121.196,35 Z M121.196,31.952 C122.244005,31.952 123.025997,31.5980035 123.542,30.89 C124.058003,30.1819965 124.316,29.2720056 124.316,28.16 C124.316,27.0079942 124.054003,26.0880034 123.53,25.4 C123.005997,24.7119966 122.228005,24.368 121.196,24.368 C120.483996,24.368 119.900002,24.5279984 119.444,24.848 C118.987998,25.1680016 118.650001,25.6119972 118.43,26.18 C118.209999,26.7480028 118.1,27.4079962 118.1,28.16 C118.1,29.3200058 118.361997,30.2419966 118.886,30.926 C119.410003,31.6100034 120.179995,31.952 121.196,31.952 Z M185.612,23.7655154 C185.71945,23.5733801 185.83945,23.3902087 185.972,23.216 C186.252001,22.8479982 186.595998,22.5440012 187.004,22.304 C187.316002,22.111999 187.655998,21.9620005 188.024,21.854 C188.392002,21.7459995 188.771998,21.6780001 189.164,21.65 C189.556002,21.6219999 189.947998,21.6319998 190.34,21.68 L190.34,24.728 C189.979998,24.6159994 189.562002,24.5779998 189.086,24.614 C188.609998,24.6500002 188.180002,24.7599991 187.796,24.944 C187.411998,25.1200009 187.088001,25.3539985 186.824,25.646 C186.559999,25.9380015 186.360001,26.281998 186.224,26.678 C186.087999,27.074002 186.02,27.5199975 186.02,28.016 L186.02,34.64 L182.732,34.64 L182.732,21.68 L185.612,21.68 L185.612,23.7655154 Z M196.592,35 C195.247993,35 194.096005,34.700003 193.136,34.1 C192.175995,33.499997 191.440003,32.6840052 190.928,31.652 C190.415997,30.6199948 190.16,29.4560065 190.16,28.16 C190.16,26.8479934 190.425997,25.6760052 190.958,24.644 C191.490003,23.6119948 192.239995,22.800003 193.208,22.208 C194.176005,21.615997 195.319993,21.32 196.64,21.32 C198.168008,21.32 199.449995,21.7059961 200.486,22.478 C201.522005,23.2500039 202.183999,24.3039933 202.472,25.64 L199.208,26.504 C199.015999,25.8319966 198.682002,25.3080019 198.206,24.932 C197.729998,24.5559981 197.192003,24.368 196.592,24.368 C195.903997,24.368 195.340002,24.5339983 194.9,24.866 C194.459998,25.1980017 194.136001,25.6499971 193.928,26.222 C193.719999,26.7940029 193.616,27.4399964 193.616,28.16 C193.616,29.2880056 193.865997,30.2019965 194.366,30.902 C194.866003,31.6020035 195.607995,31.952 196.592,31.952 C197.328004,31.952 197.887998,31.7840017 198.272,31.448 C198.656002,31.1119983 198.943999,30.6320031 199.136,30.008 L202.472,30.704 C202.103998,32.0800069 201.408005,33.1399963 200.384,33.884 C199.359995,34.6280037 198.096008,35 196.592,35 Z" id="Commerce" fill="#FF7C00"></path>
                    <g id="Group-3-Copy">
                        <rect id="Rectangle-Copy-3" fill="#4A4A4A" transform="translate(15.656854, 42.656854) rotate(-315.000000) translate(-15.656854, -42.656854) " x="11.6568542" y="38.6568542" width="8" height="8"></rect>
                        <rect id="Rectangle-Copy-2" fill="#4A4A4A" transform="translate(34.656854, 42.656854) rotate(-315.000000) translate(-34.656854, -42.656854) " x="30.6568542" y="38.6568542" width="8" height="8"></rect>
                        <polygon id="Line-Copy" fill="#4A4A4A" fill-rule="nonzero" points="38.6504935 27.9240506 40.6027059 35 6.67260856 35 0 0 8.25247849 4.84087333 12.6296447 27.9240506"></polygon>
                        <g id="Group-3-Copy-3" transform="translate(10.000000, 6.000000)">
                            <g id="Group">
                                <polygon id="Path-2" fill="#FF7C00" points="-2.84217094e-14 0 4.57051852 19.25 12.3846154 6.71239039"></polygon>
                                <polygon id="Path-4" fill="#FF9F00" points="5.30769231 21 14.2469636 7 15.9230769 16.1538462"></polygon>
                                <polygon id="Path-5" fill="#FFCC00" points="15.9230769 5.25 17.556213 15.75 23 9.94736842"></polygon>
                            </g>
                        </g>
                    </g>
                </g>
            </g>
        </g>
    </g>
</svg>